<svg xmlns="http://www.w3.org/2000/svg" viewBox="0 0 220 52" role="img" aria-labelledby="title">
  <title id="title">SafeCheck Logo Utama</title>
  <path d="M 16 5 L 35 12 L 35 26 C 35 36 27 43 16 48 C 5 43 -3 36 -3 26 L -3 12 L 16 5 Z" transform="translate(8 0)" fill="#0A2540"/>
  <path d="M 16 9 L 31 14 L 31 26 C 31 33 25 39 16 43 C 7 39 1 33 1 26 L 1 14 L 16 9 Z" transform="translate(8 0)" fill="#0D2845" opacity="0.72"/>
  <path d="M 7 15 C 13 11 19 11 25 15" transform="translate(8 0)" fill="none" stroke="#1B6EF3" stroke-opacity="0.6" stroke-width="1.4" stroke-linecap="round"/>
  <path d="M 10 26 L 15 31 L 24 20" transform="translate(8 0)" fill="none" stroke="#10B981" stroke-width="2.4" stroke-linecap="round" stroke-linejoin="round"/>
  <text x="46" y="24" font-family="'DM Sans', 'Outfit', 'Helvetica Neue', Helvetica, Arial, sans-serif" font-size="18" font-weight="800" letter-spacing="-0.6">
    <tspan fill="#0A2540">Safe</tspan><tspan fill="#1B6EF3">Check</tspan>
  </text>
  <text x="46" y="37" font-family="'DM Sans', 'Outfit', 'Helvetica Neue', Helvetica, Arial, sans-serif" font-size="8" font-weight="400" letter-spacing="0.4" fill="#64748B">Lindungi Diri dari Penipuan Digital</text>
</svg>
