<svg xmlns="http://www.w3.org/2000/svg" viewBox="0 0 152 34" role="img" aria-labelledby="title">
  <title id="title">SafeCheck Logo Compact</title>
  <path d="M 14 3 L 29 8 L 29 20 C 29 28 23 32 14 34 C 5 32 -1 28 -1 20 L -1 8 L 14 3 Z" transform="translate(5 -2)" fill="#0A2540"/>
  <path d="M 14 6 L 26 10 L 26 20 C 26 25 21 29 14 31 C 7 29 2 25 2 20 L 2 10 L 14 6 Z" transform="translate(5 -2)" fill="#0D2845" opacity="0.72"/>
  <path d="M 7 12 C 12 9 17 9 22 12" transform="translate(5 -2)" fill="none" stroke="#1B6EF3" stroke-opacity="0.6" stroke-width="1.2" stroke-linecap="round"/>
  <path d="M 9 20 L 13 24 L 21 15" transform="translate(5 -2)" fill="none" stroke="#10B981" stroke-width="2.2" stroke-linecap="round" stroke-linejoin="round"/>
  <text x="40" y="23" font-family="'DM Sans', 'Outfit', 'Helvetica Neue', Helvetica, Arial, sans-serif" font-size="17" font-weight="800" letter-spacing="-0.6">
    <tspan fill="#0A2540">Safe</tspan><tspan fill="#1B6EF3">Check</tspan>
  </text>
</svg>
